<?xml version="1.0" encoding="UTF-8"?>
<svg version="1.1" xmlns="http://www.w3.org/2000/svg" width="1024" height="1024">
<path d="M0 0 C337.92 0 675.84 0 1024 0 C1024 337.92 1024 675.84 1024 1024 C686.08 1024 348.16 1024 0 1024 C0 686.08 0 348.16 0 0 Z " fill="#FDFDFD" transform="translate(0,0)"/>
<path d="M0 0 C4.0705709 0.93936252 7.515219 2.72979807 11.14379883 4.76489258 C64.75744155 34.80571001 132.36108995 50.95505913 193.25097656 55.76049805 C195 56 195 56 196 57 C196.10362739 59.20479881 196.1352388 61.41298212 196.14044189 63.62020874 C196.14489858 64.67097279 196.14489858 64.67097279 196.1494453 65.74296439 C196.15817096 68.10909096 196.15964395 70.47516716 196.16113281 72.84130859 C196.16575926 74.53161732 196.17078368 76.221925 196.17617798 77.91223145 C196.18934426 82.52540784 196.19575828 87.13856964 196.20018864 91.75176191 C196.2031202 94.64370004 196.20722576 97.53563421 196.21169281 100.42757034 C196.22539555 109.50186437 196.23504148 118.57614931 196.2388947 127.65045297 C196.24334472 138.07116387 196.2607368 148.49174158 196.2898953 158.91241205 C196.31170219 166.99177093 196.32160943 175.07109294 196.32293582 183.15048087 C196.32397289 187.96082971 196.32963832 192.77105389 196.34775543 197.58137131 C196.44679093 225.50962472 196.196494 253.02651255 188 280 C187.79036621 280.7017334 187.58073242 281.4034668 187.36474609 282.12646484 C179.67954386 307.24092481 166.28933363 330.5117705 150 351 C149.28457031 351.9075 148.56914063 352.815 147.83203125 353.75 C135.66766821 368.90701165 122.0202242 383.8011839 106.71875 395.83984375 C104.24428056 397.80590927 101.85556914 399.84730834 99.47436523 401.92456055 C91.41695873 408.91682981 82.80374866 414.99025541 74 421 C73.30310059 421.48049805 72.60620117 421.96099609 71.88818359 422.45605469 C52.4317073 435.85023576 32.03373944 447.87342254 11.13134766 458.86523438 C9.31793149 459.83072788 7.53589818 460.85479527 5.76171875 461.890625 C2.28441217 463.28744971 0.62641327 462.85065041 -3 462 C-5.88647461 460.73168945 -5.88647461 460.73168945 -8.90234375 459.11328125 C-10.02898437 458.51136963 -11.155625 457.90945801 -12.31640625 457.28930664 C-13.52383054 456.63109156 -14.73085294 455.97213882 -15.9375 455.3125 C-16.55238281 454.97975067 -17.16726563 454.64700134 -17.80078125 454.3041687 C-34.33673146 445.35388237 -50.55729292 435.74007421 -66 425 C-66.63035156 424.56510254 -67.26070313 424.13020508 -67.91015625 423.68212891 C-95.27448663 404.77644551 -122.37239773 383.29842077 -143 357 C-143.88157781 355.90785637 -144.76444681 354.81675404 -145.6484375 353.7265625 C-161.70433687 333.80603562 -174.36247105 312.12797344 -183 288 C-183.37463379 286.95682617 -183.37463379 286.95682617 -183.75683594 285.89257812 C-194.28659551 255.95359458 -194.3058139 225.09349255 -194.23571944 193.76799679 C-194.22683198 188.95057761 -194.22869827 184.13316057 -194.2290802 179.31573486 C-194.22814988 171.25376741 -194.21954249 163.1918381 -194.20581055 155.12988281 C-194.18998474 145.80398765 -194.18481643 136.47813382 -194.1855461 127.15222621 C-194.18621982 117.19627786 -194.17930108 107.24034544 -194.1700995 97.28440189 C-194.16796655 94.41891736 -194.16725817 91.55343539 -194.16686058 88.68795013 C-194.16586034 84.20621719 -194.15979019 79.72451926 -194.14969444 75.24279785 C-194.14676245 73.5951687 -194.14554548 71.94753553 -194.14612198 70.29990387 C-194.1466091 68.06145002 -194.14099312 65.8230958 -194.13371277 63.58465576 C-194.13203692 62.32971691 -194.13036108 61.07477806 -194.12863445 59.78181076 C-194 57 -194 57 -193 56 C-190.48623109 55.62525406 -187.98519333 55.30623241 -185.4609375 55.01953125 C-183.84814514 54.82725509 -182.23543701 54.63427143 -180.62280273 54.44067383 C-179.76806366 54.33896881 -178.91332458 54.23726379 -178.03268433 54.13247681 C-119.70017988 47.10942734 -49.71685485 33.1445699 0 0 Z " fill="#FBFBFC" transform="translate(510,162)"/>
<path d="M0 0 C4.47870656 2.15937638 7.18198188 4.92952939 10 9 C11.46039926 13.38119778 11.9497345 17.68642875 10.17578125 22.0078125 C8.69648586 24.63644892 7.13425601 26.86574399 5 29 C4.75684344 31.66949409 4.75684344 31.66949409 4.875 34.625 C4.89304687 35.62789062 4.91109375 36.63078125 4.9296875 37.6640625 C4.95289063 38.43492187 4.97609375 39.20578125 5 40 C5.58007812 39.79503906 6.16015625 39.59007812 6.7578125 39.37890625 C26.55810159 32.55009368 43.53501432 37.97513281 62 46 C76.93283179 52.42744829 92.00142067 57.25798859 108.4375 57.0625 C109.16904297 57.05798828 109.90058594 57.05347656 110.65429688 57.04882812 C112.43623419 57.03718148 114.21812863 57.01925191 116 57 C116.556875 55.906875 117.11375 54.81375 117.6875 53.6875 C119.65189121 50.29446064 121.25605378 48.48016478 125 47 C129.97922113 46.46651202 133.06538376 46.83044803 137 50 C139.12738138 52.71424521 139.92909561 54.5239277 140.4375 57.9375 C139.85270378 62.03107356 138.72868075 63.87200012 136 67 C133.72561278 68.39371864 131.43867685 69.59517131 129.0234375 70.7265625 C126.58258536 72.26269724 125.98317458 73.31259056 125 76 C125.32387085 77.98344486 125.32387085 77.98344486 126.29150391 79.94677734 C126.62825638 80.72065796 126.96500885 81.49453857 127.31196594 82.29187012 C127.88844124 83.55118347 127.88844124 83.55118347 128.4765625 84.8359375 C128.86921799 85.7268811 129.26187347 86.61782471 129.66642761 87.5357666 C130.97163986 90.4887599 132.29838398 93.43156793 133.625 96.375 C134.53769129 98.43042496 135.44872052 100.48658869 136.3581543 102.54345703 C138.26183577 106.84564871 140.17278042 111.14450844 142.08837891 115.44140625 C146.29953559 124.90521681 150.41255299 134.41156163 154.5302124 143.9163208 C156.17754731 147.71728988 157.82849454 151.51668064 159.48059082 155.31558228 C160.24473313 157.07280905 161.00834104 158.83026833 161.7713623 160.58798218 C163.54215725 164.66438285 165.32264926 168.73594315 167.12646484 172.79785156 C167.45627853 173.54293976 167.78609222 174.28802795 168.12590027 175.05569458 C168.74051821 176.44240968 169.35810341 177.82781493 169.97920227 179.2116394 C172 183.77707652 172 183.77707652 172 186 C173.32 186.33 174.64 186.66 176 187 C175.59177346 199.45090941 168.84620167 208.62616832 160 217 C145.64035244 228.91990161 128.59323793 233.30664921 110.20605469 232.20703125 C91.92632383 230.49153637 76.41340104 221.2056322 64.8046875 207.38671875 C60.54298473 201.65392611 56.56103009 195.30190512 57.3125 187.9375 C57.6528125 186.9784375 57.6528125 186.9784375 58 186 C59.32 186 60.64 186 62 186 C62.09249023 185.34354492 62.18498047 184.68708984 62.28027344 184.01074219 C63.22842089 180.04447546 64.83729354 176.5346677 66.515625 172.828125 C66.8791507 172.01325119 67.24267639 171.19837738 67.61721802 170.35881042 C68.40852107 168.58545212 69.20195264 166.81304243 69.99725342 165.04147339 C72.15323396 160.2373395 74.29243766 155.4257719 76.4296875 150.61328125 C76.87958038 149.60052628 77.32947327 148.5877713 77.79299927 147.54432678 C84.02898595 133.46848241 90.03918874 119.29474886 96.05566406 105.12402344 C96.69615189 103.62032951 96.69615189 103.62032951 97.34957886 102.08625793 C98.1414544 100.2271301 98.93085158 98.36694349 99.71707153 96.50541687 C102.25562059 90.55113329 105.04556214 84.75887232 108 79 C107.04222656 79.04640625 106.08445312 79.0928125 105.09765625 79.140625 C86.29299518 79.76649151 69.60994292 73.78290801 52.64672852 66.18310547 C39.18269246 60.15528003 25.52734764 57.11256073 11.125 62 C10.17882812 62.37125 9.23265625 62.7425 8.2578125 63.125 C6 64 6 64 4 64 C4 87.43 4 110.86 4 135 C6.31 135.33 8.62 135.66 11 136 C25.09486885 141.21342573 36.35107287 152.0136492 42.8125 165.5 C48.79049202 179.69773104 48.25117757 193.53215384 43 208 C38.16235585 218.45910913 38.16235585 218.45910913 33.93710327 221.47001648 C31.29385064 223.47983052 29.66399508 225.11023692 28 228 C27.90104955 233.55349426 29.40526222 238.65395189 30.8671875 243.9609375 C31.25913598 245.51634207 31.64685657 247.07281756 32.0305481 248.63027954 C33.05091095 252.72467394 34.12640295 256.80253814 35.21466064 260.8793335 C36.30562734 265.0024999 37.34675353 269.1381447 38.390625 273.2734375 C39.56983489 277.93563494 40.75375 282.59611068 41.97628784 287.24716187 C47 306.36180754 47 306.36180754 47 315 C32.81 315 18.62 315 4 315 C3.07398884 333.45362231 3.07398884 333.45362231 9.0625 340.5 C10.99165084 342.06380233 12.9782075 343.55796817 15 345 C16.29393836 345.99929578 17.58409488 347.0035013 18.87109375 348.01171875 C24.69411133 352.521138 30.6613778 356.79435472 36.75 360.9375 C40.10875209 363.27106806 42.94160564 365.37330517 45 369 C44.74655409 371.53164995 44.37625272 372.65911889 42.47558594 374.38110352 C41.81848633 374.79287842 41.16138672 375.20465332 40.484375 375.62890625 C39.36434082 376.33768921 39.36434082 376.33768921 38.22167969 377.06079102 C37.40602539 377.55635498 36.59037109 378.05191895 35.75 378.5625 C34.91114258 379.08191162 34.07228516 379.60132324 33.20800781 380.13647461 C23.74275836 385.90943822 13.95569399 391.12521856 4 396 C3.35611328 396.32081543 2.71222656 396.64163086 2.04882812 396.97216797 C-2.66483906 399.18315151 -6.56941577 399.85299573 -11.55102539 398.10473633 C-12.81160767 397.47474731 -12.81160767 397.47474731 -14.09765625 396.83203125 C-15.05454346 396.35685059 -16.01143066 395.88166992 -16.99731445 395.39208984 C-18.00882568 394.8708252 -19.02033691 394.34956055 -20.0625 393.8125 C-21.11074951 393.28092285 -22.15899902 392.7493457 -23.23901367 392.20166016 C-34.91851411 386.17608173 -46.06975341 379.28683106 -57 372 C-56.93078703 369.09305506 -56.69814325 366.84321198 -54.796875 364.546875 C-51.26600663 361.42736993 -47.36993429 358.89381716 -43.4375 356.3125 C-36.83784224 351.9762927 -30.56673368 347.31693807 -24.5078125 342.25048828 C-23.22702315 341.18827924 -21.91350749 340.16572896 -20.59375 339.15234375 C-13.01436712 332.33400546 -15.6233859 326.22094622 -15 315 C-29.52 315 -44.04 315 -59 315 C-59 307.1246709 -59 307.1246709 -57.99365234 302.73681641 C-57.77276947 301.75693756 -57.5518866 300.77705872 -57.3243103 299.76748657 C-57.08064728 298.72273163 -56.83698425 297.67797668 -56.5859375 296.6015625 C-56.20775375 294.94077164 -56.20775375 294.94077164 -55.82192993 293.24642944 C-55.01334342 289.70429446 -54.1941948 286.1646948 -53.375 282.625 C-52.84699359 280.31525555 -52.31964408 278.00536083 -51.79296875 275.6953125 C-49.66493538 266.39455006 -47.53311406 257.09752275 -45.22753906 247.83886719 C-44.94431793 246.69316254 -44.6610968 245.54745789 -44.36929321 244.36703491 C-43.82816764 242.18775385 -43.27920632 240.0103989 -42.72128296 237.83535767 C-42.35965561 236.3765065 -42.35965561 236.3765065 -41.99072266 234.88818359 C-41.66667953 233.61229874 -41.66667953 233.61229874 -41.33609009 232.31063843 C-40.97457597 229.82520832 -41.13062676 228.34315519 -42 226 C-43.33905774 224.46924558 -44.74457045 222.99576168 -46.1875 221.5625 C-56.53327182 210.39302023 -59.72830447 196.88854435 -59.3125 182.0703125 C-58.52207226 168.08632841 -51.1158962 155.39957194 -41 146 C-33.84273547 140.57035104 -25.20687556 135 -16 135 C-16.33 111.57 -16.66 88.14 -17 64 C-27.97023345 60.38437148 -27.97023345 60.38437148 -38.875 59.4375 C-40.01352417 59.4528479 -40.01352417 59.4528479 -41.17504883 59.46850586 C-52.46134959 59.88477001 -62.22661072 64.52328444 -72.22192383 69.40136719 C-79.53119055 72.88296913 -87.19295037 74.94382232 -95 77 C-95.84046875 77.2475 -96.6809375 77.495 -97.546875 77.75 C-102.283549 79.03210725 -106.89066662 79.0844071 -111.7734375 79.04296875 C-112.46912842 79.03986694 -113.16481934 79.03676514 -113.8815918 79.03356934 C-115.58774555 79.02551453 -117.29387819 79.01318548 -119 79 C-113.31947384 92.13143041 -107.63411001 105.26072827 -101.9140625 118.375 C-101.56910736 119.16610168 -101.22415222 119.95720337 -100.8687439 120.77227783 C-99.09526351 124.83858163 -97.31954844 128.90389055 -95.54052734 132.96777344 C-92.19238248 140.62367375 -88.86618071 148.28696599 -85.61930847 155.98646545 C-84.16378954 159.43786385 -82.69949373 162.88551301 -81.23526001 166.33322144 C-80.54109101 167.97580972 -79.85171311 169.62043164 -79.16732788 171.26712036 C-78.22088637 173.54389128 -77.25869105 175.81338595 -76.29296875 178.08203125 C-76.01763306 178.75715759 -75.74229736 179.43228394 -75.45861816 180.12786865 C-74.23871432 182.95597881 -73.41650018 184.72953995 -70.79418945 186.43237305 C-70.20210693 186.61968994 -69.61002441 186.80700684 -69 187 C-70.24194328 198.93477203 -76.25487686 208.48050463 -84.91796875 216.52734375 C-93.94028081 223.76577662 -103.73188444 228.2565936 -115 231 C-115.76441406 231.19078125 -116.52882813 231.3815625 -117.31640625 231.578125 C-134.86942785 234.33755198 -152.19467458 230.93782117 -167 221 C-176.30875118 213.98817684 -184.20940837 205.21085356 -188 194 C-188.23608151 191.29450593 -188.09234983 188.72432002 -188 186 C-186.68 186 -185.36 186 -184 186 C-183.83075012 185.46324646 -183.66150024 184.92649292 -183.48712158 184.37347412 C-181.59684215 178.52616562 -179.36111692 172.9032321 -176.921875 167.265625 C-176.32196999 165.86735725 -176.32196999 165.86735725 -175.70994568 164.44084167 C-174.39360906 161.37564591 -173.07191634 158.31279308 -171.75 155.25 C-170.82700671 153.10434401 -169.90424061 150.95859027 -168.98168945 148.81274414 C-158.38353924 124.18158428 -147.69649117 99.58857106 -137 75 C-140.39812507 71.51877589 -143.83876516 69.09191764 -147.9765625 66.5625 C-151.30063063 63.99565202 -151.90586343 61.72619642 -152.4375 57.625 C-151.85694294 52.8146701 -150.38607407 51.38607407 -147 48 C-143.73418475 46.36709238 -140.51603041 46.32213468 -137 47 C-132.765506 49.52425176 -130.01138626 52.50855495 -128 57 C-105.67111848 58.12268119 -86.14176177 51.94888431 -66.23901367 42.40844727 C-51.09794243 35.22783221 -36.05426461 34.19913623 -20 39 C-18.64727526 39.62638486 -17.30385704 40.27738043 -16 41 C-16.06041869 38.9367016 -16.14931638 36.87422586 -16.25 34.8125 C-16.29640625 33.66394531 -16.3428125 32.51539063 -16.390625 31.33203125 C-17.09357761 27.48832242 -18.39352952 25.84388155 -21 23 C-23.07794433 18.84411134 -22.75028694 13.27658494 -21.31640625 8.92578125 C-16.59831675 -0.09927792 -9.37373871 -1.27472546 0 0 Z " fill="#012144" transform="translate(517,197)"/>
<path d="M0 0 C2.53150227 1.22202237 5.03389228 2.47022332 7.51538086 3.79101562 C8.44882324 4.28480713 9.38226562 4.77859863 10.34399414 5.28735352 C11.33383301 5.81192139 12.32367187 6.33648926 13.34350586 6.87695312 C75.30690047 39.32501132 143.04333123 52.69022373 211.87687683 61.28788757 C212.99088057 61.42708248 212.99088057 61.42708248 214.12738943 61.56908941 C215.94942364 61.79674748 217.77146412 62.02435532 219.59350586 62.25195312 C219.64032782 88.81740662 219.67554454 115.38285389 219.6971302 141.94834042 C219.70742137 154.28450339 219.72144022 166.62064065 219.74438477 178.95678711 C219.76438497 189.71507824 219.77723798 200.47335074 219.78168285 211.23165995 C219.78427904 216.92252413 219.79033576 222.61333503 219.80496597 228.30418205 C219.81865487 233.67294939 219.8227059 239.04164206 219.81972122 244.41042519 C219.82026637 246.36899599 219.82417585 248.3275696 219.83191681 250.28612518 C219.89196791 266.27952979 218.65872788 281.6439718 215.28100586 297.31445312 C214.95289917 298.85020996 214.95289917 298.85020996 214.61816406 300.41699219 C212.76026792 308.88777286 210.5523803 317.09542723 207.59350586 325.25195312 C207.32731445 325.99268066 207.06112305 326.7334082 206.78686523 327.49658203 C196.64672368 355.25607791 181.55724766 380.62211407 162.59350586 403.25195312 C161.68199328 404.37194438 160.77158525 405.492837 159.86303711 406.61523438 C153.45951512 414.30149686 146.58394314 421.47548513 139.53100586 428.56445312 C138.62133057 429.48331299 137.71165527 430.40217285 136.77441406 431.34887695 C130.68606888 437.40985878 124.30691477 442.89923901 117.59350586 448.25195312 C116.28800184 449.33638994 114.98553305 450.42449976 113.68725586 451.51757812 C104.54424731 459.14238879 95.02069691 465.97973448 85.11157227 472.57080078 C82.52598347 474.29703352 79.9553432 476.04392059 77.38647461 477.79492188 C66.06758663 485.47836313 54.5622242 492.62754345 42.59350586 499.25195312 C41.64540039 499.7767627 40.69729492 500.30157227 39.72045898 500.84228516 C33.66134332 504.18264229 27.5782077 507.47484697 21.46899414 510.72265625 C19.60021737 511.71654466 17.73385717 512.71499502 15.87036133 513.71875 C13.41182824 515.03897903 10.94282576 516.33661121 8.46850586 517.62695312 C7.75299561 518.01447754 7.03748535 518.40200195 6.30029297 518.80126953 C3.36346422 520.30310921 1.03869918 521.24892871 -2.28149414 521.27148438 C-6.83924741 519.78451737 -11.01576867 517.74037909 -15.28149414 515.56445312 C-16.23822021 515.08113525 -17.19494629 514.59781738 -18.18066406 514.09985352 C-28.5904787 508.76453864 -38.64872385 502.84900609 -48.69262695 496.86083984 C-51.10472416 495.43085418 -53.52761472 494.0238779 -55.96118164 492.63085938 C-78.32350647 479.79848142 -99.72502318 464.91227429 -119.40649414 448.25195312 C-120.38489258 447.45789063 -121.36329102 446.66382813 -122.37133789 445.84570312 C-130.41729595 439.2380945 -137.84512695 432.02760508 -145.21899414 424.68945312 C-145.95079895 423.9654129 -145.95079895 423.9654129 -146.6973877 423.22674561 C-153.39574522 416.58448492 -159.57130685 409.66778446 -165.40649414 402.25195312 C-166.26803101 401.17143677 -166.26803101 401.17143677 -167.14697266 400.0690918 C-204.23577521 353.28668944 -222.64127749 300.96317325 -222.52001953 241.39501953 C-222.51973688 239.43238832 -222.51989691 237.469757 -222.52046204 235.50712585 C-222.52074698 230.22092398 -222.51489946 224.93474516 -222.50788808 219.6485486 C-222.50160388 214.10858562 -222.50104675 208.56862201 -222.49986267 203.02865601 C-222.49676422 192.55661566 -222.488571 182.08458586 -222.47851318 171.61255014 C-222.46730572 159.68258689 -222.46182995 147.75262312 -222.45681775 135.82265592 C-222.44638704 111.2990825 -222.42881657 86.7755184 -222.40649414 62.25195312 C-218.40529208 61.71751421 -214.40405408 61.18334512 -210.40278625 60.6493988 C-208.39265178 60.38110534 -206.38254374 60.11261384 -204.37243652 59.84411621 C-196.57722583 58.80403334 -188.78074552 57.77516091 -180.98196411 56.76213074 C-166.64363914 54.86750146 -152.53801928 52.31323199 -138.40649414 49.25195312 C-137.19735352 48.99542969 -135.98821289 48.73890625 -134.74243164 48.47460938 C-116.36928486 44.56423496 -98.30714315 39.99698096 -80.40649414 34.25195312 C-78.90699219 33.77072998 -78.90699219 33.77072998 -77.37719727 33.27978516 C-55.58592381 26.19005987 -33.79240537 17.42728262 -14.04711914 5.68554688 C-13.32322998 5.25959229 -12.59934082 4.8336377 -11.85351562 4.39477539 C-10.4650294 3.57006889 -9.08617767 2.72884505 -7.71923828 1.86889648 C-3.0127348 -0.9364938 -3.0127348 -0.9364938 0 0 Z M-9.08227539 32.82226562 C-16.75766655 36.9919836 -24.58287285 40.65394717 -32.59399414 44.12695312 C-33.27969482 44.42532074 -33.96539551 44.72368835 -34.671875 45.03109741 C-65.80611475 58.53307246 -98.18422227 68.39534863 -131.40649414 75.25195312 C-132.53249023 75.49010742 -133.65848633 75.72826172 -134.81860352 75.97363281 C-151.54363613 79.48883013 -168.17518695 82.18694036 -185.15966797 84.04711914 C-186.17951027 84.16008331 -186.17951027 84.16008331 -187.21995544 84.27532959 C-189.06461066 84.47758982 -190.91009188 84.67227568 -192.75561523 84.86645508 C-195.32404779 84.97017763 -195.32404779 84.97017763 -196.40649414 86.25195312 C-196.50790098 88.44494754 -196.53727526 90.64127309 -196.54020691 92.83660889 C-196.54247247 93.53318454 -196.54473802 94.22976019 -196.54707223 94.9474442 C-196.5534413 97.29994023 -196.55258095 99.65237907 -196.55175781 102.00488281 C-196.55474801 103.68522212 -196.55815021 105.36556073 -196.56193542 107.04589844 C-196.57080649 111.62975134 -196.57311519 116.2135856 -196.57375121 120.79744625 C-196.57446142 123.66789634 -196.57659547 126.53834168 -196.57924843 129.40879059 C-196.58852097 139.4440796 -196.59258204 149.47935529 -196.59179688 159.51464844 C-196.59119964 168.82838239 -196.60167646 178.14205776 -196.61754054 187.45577693 C-196.63070166 195.47219764 -196.63597702 203.48859946 -196.63534147 211.50503087 C-196.63508843 216.28274032 -196.63782886 221.06039804 -196.64851952 225.83809662 C-196.89703756 259.67254331 -196.89703756 259.67254331 -192.28149414 293.12695312 C-192.07049072 294.11252197 -191.8594873 295.09809082 -191.64208984 296.11352539 C-184.51619532 327.71914076 -169.4400841 355.99565452 -149.40649414 381.25195312 C-148.63692383 382.23421875 -147.86735352 383.21648437 -147.07446289 384.22851562 C-135.55575601 398.63208783 -122.61498828 412.58000963 -108.15649414 424.06054688 C-105.35236868 426.29508435 -102.63273831 428.61078623 -99.90649414 430.93945312 C-88.04603486 440.8386125 -75.40928376 449.91929213 -62.40649414 458.25195312 C-61.42688721 458.88834717 -61.42688721 458.88834717 -60.42749023 459.53759766 C-48.26828143 467.4308022 -35.82752647 474.7349213 -23.13647461 481.73876953 C-20.54049618 483.17767798 -17.95921292 484.64022666 -15.37915039 486.10742188 C-13.86814 486.94853941 -12.35646451 487.78846372 -10.84399414 488.62695312 C-10.17223145 489.01455811 -9.50046875 489.40216309 -8.80834961 489.80151367 C-5.99599292 491.33090826 -3.80665834 492.2453022 -0.58618164 492.29882812 C4.17838884 490.7301489 8.48579401 488.48214998 12.90600586 486.12695312 C13.91002441 485.59634277 14.91404297 485.06573242 15.94848633 484.51904297 C45.75567822 468.57115793 75.30542427 450.09049216 100.80053711 427.77392578 C103.08652128 425.83345392 105.43593969 423.97702552 107.77709961 422.10351562 C113.78310971 417.2023104 119.26369385 411.8777973 124.71850586 406.37695312 C125.64276367 405.46042969 126.56702148 404.54390625 127.51928711 403.59960938 C133.64066524 397.46096361 139.21832374 391.04949533 144.59350586 384.25195312 C145.47446763 383.16817359 146.35586583 382.08474838 147.23803711 381.00195312 C178.7882153 340.98154692 193.79001434 295.40722054 193.72290039 244.74926758 C193.72425802 243.01515161 193.72603998 241.28103592 193.72821045 239.54692078 C193.73273802 234.87415227 193.7310156 230.20140603 193.72783136 225.52863717 C193.72528794 220.63108529 193.72765039 215.73353524 193.72921753 210.83598328 C193.73103155 202.62608499 193.72865109 194.41619574 193.72387695 186.20629883 C193.71841584 176.70507029 193.72021342 167.20386315 193.72570336 157.70263511 C193.73023261 149.53768744 193.73088657 141.37274623 193.72826469 133.20779771 C193.72670344 128.33365571 193.72650443 123.45952381 193.72980118 118.58538246 C193.73267782 114.01430945 193.73070808 109.44326428 193.72490692 104.87219429 C193.72357906 103.19070736 193.72397388 101.50921811 193.72616959 99.82773209 C193.72887957 97.54282211 193.72550211 95.25800286 193.7204895 92.97309875 C193.72011248 91.69172185 193.71973545 90.41034494 193.719347 89.09013844 C193.91787738 86.35129418 193.91787738 86.35129418 192.59350586 85.25195312 C190.69406616 84.95131005 188.78533846 84.70916714 186.87475586 84.49023438 C185.64934082 84.34416748 184.42392578 84.19810059 183.16137695 84.04760742 C182.50030945 83.96956879 181.83924194 83.89153015 181.15814209 83.81112671 C119.73327622 76.47235604 56.26096028 61.15266954 2.05053711 30.54492188 C-2.46981673 28.16616652 -4.98876517 30.55255514 -9.08227539 32.82226562 Z " fill="#012144" transform="translate(512.406494140625,132.748046875)"/>
<path d="M0 0 C0.99 0.3403125 1.98 0.680625 3 1.03125 C18.09373201 6.72990392 28.83935812 16.63687294 35.7734375 31.10546875 C40.83664104 43.05398412 41.17076004 58.35415737 36.265625 70.49609375 C34.18114299 74.62002266 31.81722716 78.34043607 29 82 C28.32324219 82.92232422 28.32324219 82.92232422 27.6328125 83.86328125 C19.37709481 94.38115887 5.85875401 101.09793258 -7 104 C-7.99 104 -8.98 104 -10 104 C-9.77507185 111.5800786 -9.60562898 116.76011558 -5 123 C-4.5 126.5 -4.5 126.5 -5 130 C-5.66016365 130.87352867 -6.3203273 131.74705734 -7.00049591 132.64705658 C-9.60188898 137.00930011 -9.5537623 140.17017005 -9.49206543 145.14709473 C-9.49674442 146.05862006 -9.50142341 146.97014539 -9.50624418 147.9092927 C-9.51716296 150.95869773 -9.49969545 154.00727482 -9.48242188 157.05664062 C-9.48460802 159.2448094 -9.48860518 161.43297701 -9.49427795 163.62113953 C-9.50284183 168.33073258 -9.49906058 173.04009774 -9.4858551 177.74967957 C-9.46552971 185.19537832 -9.4754907 192.640847 -9.4901123 200.08654785 C-9.50778791 210.5240213 -9.51441629 220.96143871 -9.50927734 231.39892578 C-9.50895671 232.060866 -9.50863608 232.72280623 -9.50830573 233.40480524 C-9.50593261 238.10320375 -9.5030281 242.80160187 -9.5 247.5 C-9.49654097 252.86702458 -9.49332236 258.23404915 -9.49072266 263.60107422 C-9.49039715 264.26220547 -9.49007163 264.92333673 -9.48973626 265.60450226 C-9.48479271 276.6314125 -9.49564019 287.65825299 -9.51729441 298.68514204 C-9.53068294 306.0881008 -9.52468668 313.49071557 -9.50392914 320.89365387 C-9.4949542 325.49701482 -9.50240725 330.10024262 -9.51434135 334.7035923 C-9.51647512 336.83933269 -9.51173372 338.9750926 -9.4996357 341.11079979 C-9.4840564 344.02519436 -9.49297467 346.93853078 -9.50793457 349.85290527 C-9.49744567 350.69901698 -9.48695678 351.54512868 -9.47615004 352.41688013 C-9.53702709 357.73836109 -10.44584284 360.79234029 -14 365 C-18.2418919 367.82792793 -22.01873743 367.78122286 -27 367 C-30.12291165 365.31987353 -32.39164837 363.21670326 -34 360 C-34.2322646 357.28737884 -34.41936235 354.59226874 -34.5625 351.875 C-34.60568359 351.12089844 -34.64886719 350.36679687 -34.69335938 349.58984375 C-34.7994832 347.72678112 -34.90025001 345.86341476 -35 344 C-39.95 343.67 -44.9 343.34 -50 343 C-50.33 338.38 -50.66 333.76 -51 329 C-55.29 328.67 -59.58 328.34 -64 328 C-64 332.95 -64 337.9 -64 343 C-67.64588169 343.02682987 -71.29156846 343.04675569 -74.9375 343.0625 C-75.97841797 343.07087891 -77.01933594 343.07925781 -78.09179688 343.08789062 C-79.57583008 343.09272461 -79.57583008 343.09272461 -81.08984375 343.09765625 C-82.46450806 343.10551147 -82.46450806 343.10551147 -83.86694336 343.11352539 C-86 343 -86 343 -87 342 C-87.08737645 340.14630389 -87.10698153 338.28932459 -87.09765625 336.43359375 C-87.09443359 335.30888672 -87.09121094 334.18417969 -87.08789062 333.02539062 C-87.07532227 331.24938477 -87.07532227 331.24938477 -87.0625 329.4375 C-87.05798828 328.24962891 -87.05347656 327.06175781 -87.04882812 325.83789062 C-87.03699686 322.89190588 -87.01906076 319.94594684 -87 317 C-83.37 317 -79.74 317 -76 317 C-76.33 313.04 -76.66 309.08 -77 305 C-78.464375 304.855625 -79.92875 304.71125 -81.4375 304.5625 C-85.875 304.125 -85.875 304.125 -87 303 C-87.08737645 301.14630389 -87.10698153 299.28932459 -87.09765625 297.43359375 C-87.09443359 296.30888672 -87.09121094 295.18417969 -87.08789062 294.02539062 C-87.07532227 292.24938477 -87.07532227 292.24938477 -87.0625 290.4375 C-87.05798828 289.24962891 -87.05347656 288.06175781 -87.04882812 286.83789062 C-87.03699686 283.89190588 -87.01906076 280.94594684 -87 278 C-79.41 278 -71.82 278 -64 278 C-64 282.62 -64 287.24 -64 292 C-59.38 292 -54.76 292 -50 292 C-50 287.05 -50 282.1 -50 277 C-45.05 277 -40.1 277 -35 277 C-35.03801441 258.71937582 -35.09705151 240.43897962 -35.18390274 222.15852165 C-35.22370145 213.67045655 -35.25608969 205.18248427 -35.27099609 196.69433594 C-35.28400833 189.29551012 -35.31096193 181.89688848 -35.35461307 174.49817765 C-35.37723769 170.58105999 -35.39291009 166.66419425 -35.39188385 162.74700546 C-35.39113781 159.05818644 -35.40906519 155.36992449 -35.44116783 151.68124962 C-35.45371661 149.68572733 -35.44659839 147.69011156 -35.43885803 145.69456482 C-35.51597511 139.07279542 -35.69346009 135.10458106 -40 130 C-40.64124614 125.51127705 -40.33254188 123.5792665 -38.0625 119.625 C-36 117 -36 117 -35 116 C-34.76636119 114.15108054 -34.58696365 112.29511969 -34.4375 110.4375 C-34.35371094 109.42558594 -34.26992188 108.41367187 -34.18359375 107.37109375 C-34.12300781 106.58863281 -34.06242188 105.80617188 -34 105 C-35.0209375 104.814375 -35.0209375 104.814375 -36.0625 104.625 C-52.38719267 101.15166113 -66.99124753 92.9432684 -76.69140625 79.09375 C-84.60555459 66.43111266 -87.0640252 53.18528625 -84.34765625 38.46484375 C-80.101081 23.17352774 -71.02445689 12.84331826 -57.62109375 4.86328125 C-40.77461181 -4.23929074 -18.09398699 -6.52225113 0 0 Z " fill="#022245" transform="translate(834,215)"/>
<path d="M0 0 C6.93 0 13.86 0 21 0 C21.90878906 1.57523438 22.81757813 3.15046875 23.75390625 4.7734375 C24.35420654 5.81395264 24.95450684 6.85446777 25.57299805 7.92651367 C26.91172122 10.24697812 28.25042851 12.56745172 29.58911133 14.88793945 C32.77982233 20.41870233 35.97065811 25.94939296 39.16230774 31.47961426 C40.18303909 33.24826475 41.20371098 35.01694954 42.22436523 36.78564453 C43.50761328 39.00934535 44.79097439 41.23298093 46.07446289 43.45654297 C49.06063698 48.63148646 52.04124345 53.80932785 55 59 C57.54175846 55.7724012 59.60148079 52.38094543 61.66015625 48.828125 C62.37390805 47.60129857 63.08769519 46.37449271 63.80151367 45.14770508 C64.17102142 44.51055573 64.54052917 43.87340637 64.92123413 43.21694946 C76.86760937 22.62760477 76.86760937 22.62760477 81.90698242 14.95605469 C83.65115535 12.28897788 85.07610411 9.80357891 86.23046875 6.82421875 C87.375 4 87.375 4 91 0 C97.6 0 104.2 0 111 0 C111 34.98 111 69.96 111 106 C104.73 106 98.46 106 92 106 C91.505 70.36 91.505 70.36 91 34 C86.38 41.92 81.76 49.84 77 58 C73.1449393 64.28618006 69.28997928 70.56147141 65.36865234 76.8046875 C64.13972899 78.7758753 62.93344968 80.75823461 61.73828125 82.75 C61.12339844 83.760625 60.50851562 84.77125 59.875 85.8125 C59.12863281 87.05966797 59.12863281 87.05966797 58.3671875 88.33203125 C57.69042969 89.15767578 57.69042969 89.15767578 57 90 C56.01 90 55.02 90 54 90 C52.23645367 87.70270779 50.70892554 85.45349481 49.1875 83 C48.71320557 82.25032959 48.23891113 81.50065918 47.75024414 80.72827148 C37.58151605 64.49662966 28.29872032 47.73769657 19 31 C19 56.08 19 81.16 19 107 C12.73 107 6.46 107 0 107 C0 71.69 0 36.38 0 0 Z " fill="#002042" transform="translate(335,697)"/>
<path d="M0 0 C6.93759035 -0.07649331 13.87507065 -0.12878497 20.81298828 -0.16479492 C23.16980046 -0.17981778 25.52658498 -0.20024196 27.88330078 -0.22631836 C31.28424942 -0.26298821 34.68482621 -0.27979196 38.0859375 -0.29296875 C39.12801361 -0.30845261 40.17008972 -0.32393646 41.2437439 -0.33988953 C52.21818875 -0.34237556 61.64791383 2.29741139 69.91015625 9.71484375 C77.49962572 17.59435664 79.58205408 26.42564665 79.40258789 37.1484375 C78.9234921 48.50558652 75.20644865 55.66958828 67.375 63.6875 C59.80007989 69.61482475 50.04182021 72.14237829 40.60546875 72.09765625 C39.52160889 72.09515869 38.43774902 72.09266113 37.32104492 72.09008789 C35.9569751 72.08098389 34.59290527 72.07187988 33.1875 72.0625 C28.835625 72.041875 24.48375 72.02125 20 72 C20 83.55 20 95.1 20 107 C16.885625 107.020625 13.77125 107.04125 10.5625 107.0625 C9.08825562 107.07615601 9.08825562 107.07615601 7.58422852 107.09008789 C6.81522217 107.09258545 6.04621582 107.09508301 5.25390625 107.09765625 C4.46314697 107.10289307 3.6723877 107.10812988 2.85766602 107.11352539 C1 107 1 107 0 106 C-0.0953919 104.62123975 -0.12188622 103.23763084 -0.12025452 101.85557556 C-0.12162918 100.96230057 -0.12300385 100.06902557 -0.12442017 99.14868164 C-0.12082489 98.16109863 -0.11722961 97.17351562 -0.11352539 96.15600586 C-0.11367142 95.12198135 -0.11381744 94.08795685 -0.1139679 93.02259827 C-0.11326827 89.58665914 -0.10547358 86.15077347 -0.09765625 82.71484375 C-0.09579225 80.33972707 -0.09436826 77.96461 -0.09336853 75.5894928 C-0.08954197 69.32423856 -0.0797105 63.05900733 -0.06866455 56.79376221 C-0.0584534 50.4061311 -0.05387155 44.01849629 -0.04882812 37.63085938 C-0.03808836 25.08722974 -0.02120127 12.54361609 0 0 Z " fill="#002043" transform="translate(475,697)"/>
<path d="M0 0 C1.14087924 0.72561668 2.2743311 1.46472745 3.375 2.25 C2.71996718 6.30819183 1.42940879 9.78971282 -0.1875 13.5625 C-0.64253906 14.63113281 -1.09757812 15.69976563 -1.56640625 16.80078125 C-2.09041016 18.01314453 -2.09041016 18.01314453 -2.625 19.25 C-3.41003906 18.91226563 -4.19507813 18.57453125 -5.00390625 18.2265625 C-6.57978516 17.55753906 -6.57978516 17.55753906 -8.1875 16.875 C-9.22003906 16.43414063 -10.25257813 15.99328125 -11.31640625 15.5390625 C-20.38051204 12.00759271 -31.7592274 9.47634208 -41.4375 11.9765625 C-44.78337729 13.58799605 -46.56118004 15.15427006 -48.625 18.25 C-49.29637481 22.85594345 -49.28267207 26.93465587 -47.1875 31.125 C-40.82422836 36.40185941 -32.67910041 38.17545715 -24.8125 40.125 C-12.56972034 43.33576902 -1.37132079 46.49666624 5.39453125 57.98046875 C8.77068612 65.2106817 8.49602876 74.01002013 6.49609375 81.57421875 C3.03499274 90.67817092 -1.46699185 95.95779317 -10.25 100.125 C-24.71913102 106.38528305 -45.7540096 105.28038324 -60.5390625 100.47265625 C-65.32763152 98.57541308 -70.03016542 96.58085164 -74.625 94.25 C-72.625 88.25 -70.625 82.25 -68.625 76.25 C-65.99741523 77.28758375 -63.38806297 78.35196463 -60.79296875 79.46875 C-59.80941406 79.8915625 -58.82585937 80.314375 -57.8125 80.75 C-56.83667969 81.1728125 -55.86085937 81.595625 -54.85546875 82.03125 C-47.97124869 84.62844064 -41.86010615 85.59344829 -34.5625 85.5625 C-33.79873047 85.57861328 -33.03496094 85.59472656 -32.24804688 85.61132812 C-26.26284258 85.61644806 -21.40617281 84.58259655 -16.6875 80.625 C-15.04148368 76.9456694 -14.78097068 73.19101881 -15.625 69.25 C-18.26071862 65.1186643 -20.61328788 63.4406094 -25.1875 61.8125 C-26.32960937 61.40128906 -27.47171875 60.99007812 -28.6484375 60.56640625 C-32.35217589 59.31698657 -36.08516863 58.16683968 -39.82104492 57.01782227 C-62.58340032 50.00286805 -62.58340032 50.00286805 -69.71875 38.484375 C-73.10393452 31.27518574 -72.71338326 21.88638969 -70.93359375 14.3046875 C-67.68298982 5.40972946 -62.76723375 0.33402356 -54.28515625 -3.70703125 C-37.99248654 -10.09490616 -15.44061445 -8.44183127 0 0 Z " fill="#012043" transform="translate(200.625,701.75)"/>
<path d="M0 0 C23.76 0 47.52 0 72 0 C72 5.61 72 11.22 72 17 C54.84 17 37.68 17 20 17 C20 25.91 20 34.82 20 44 C34.85 44 49.7 44 65 44 C65 49.61 65 55.22 65 61 C50.15 61 35.3 61 20 61 C20 70.24 20 79.48 20 89 C37.49 89 54.98 89 73 89 C73 94.61 73 100.22 73 106 C48.91 106 24.82 106 0 106 C0 71.02 0 36.04 0 0 Z " fill="#001F41" transform="translate(234,697)"/>
<path d="M0 0 C2.24994827 2.06205465 3.58527917 3.85938751 4.79907227 6.65307617 C5.12180115 7.38609451 5.44453003 8.11911285 5.77703857 8.87434387 C6.12002991 9.67249008 6.46302124 10.47063629 6.81640625 11.29296875 C7.1852594 12.1351445 7.55411255 12.97732025 7.93414307 13.84501648 C8.73220824 15.6690156 9.52712223 17.494396 10.31924438 19.32098389 C12.43332465 24.19531952 14.57028418 29.05963326 16.703125 33.92578125 C17.1403035 34.92512695 17.57748199 35.92447266 18.02790833 36.95410156 C22.55413595 47.29204681 27.17396198 57.58706571 31.8125 67.875 C32.55348857 69.52106767 33.29445593 71.16714489 34.03540039 72.81323242 C34.73826827 74.37296332 35.44130665 75.9326174 36.14453125 77.4921875 C36.47586563 78.22732071 36.80720001 78.96245392 37.14857483 79.71986389 C38.69243703 83.1371888 40.24959451 86.5470543 41.84130859 89.94238281 C42.66816162 91.70727051 42.66816162 91.70727051 43.51171875 93.5078125 C43.99471436 94.52762207 44.47770996 95.54743164 44.9753418 96.59814453 C46 99 46 99 46 101 C16.3 101 -13.4 101 -44 101 C-42.75700669 97.27102007 -41.70341177 94.16332258 -40.00390625 90.734375 C-39.61565674 89.93990967 -39.22740723 89.14544434 -38.82739258 88.3269043 C-38.40997803 87.47652588 -37.99256348 86.62614746 -37.5625 85.75 C-32.02955074 74.3161894 -27.12676085 62.64493358 -22.23242188 50.92724609 C-20.06416422 45.77720464 -17.80399522 40.66883835 -15.53515625 35.5625 C-14.35220206 32.81732388 -13.23072285 30.06954144 -12.13671875 27.2890625 C-9.86251476 21.56368751 -7.32068069 15.97220882 -4.75 10.375 C-4.29109375 9.37082031 -3.8321875 8.36664063 -3.359375 7.33203125 C-2.24167177 4.88705544 -1.12185242 2.44307404 0 0 Z " fill="#F9FAFB" transform="translate(387,283)"/>
<path d="M0 0 C0.66 0 1.32 0 2 0 C4.65034128 5.99801763 7.29560066 11.99825926 9.9375 18 C10.33827759 18.91026947 10.73905518 19.82053894 11.15197754 20.75839233 C15.75233627 31.21553048 20.31562981 41.68657163 24.76953125 52.20703125 C25.14935654 53.10412811 25.52918182 54.00122498 25.92051697 54.92550659 C27.73388479 59.21370112 29.54047435 63.50463982 31.33959961 67.79882812 C32.00165838 69.37272544 32.6644772 70.9463033 33.328125 72.51953125 C33.64181534 73.26397491 33.95550568 74.00841858 34.27870178 74.77542114 C36.55048036 80.10269345 39.08016591 85.24798446 41.86230469 90.33081055 C43 93 43 93 44 100 C14.96 100 -14.08 100 -44 100 C-42.18563752 94.55691255 -40.75253873 90.27034149 -38.20703125 85.36523438 C-31.84229658 72.89323812 -26.38913808 59.93472255 -20.75 47.125 C-19.90923037 45.21828486 -19.0683277 43.31162838 -18.22729492 41.4050293 C-15.81610515 35.9376064 -13.40780995 30.46891197 -11 25 C-10.35045267 23.52521488 -9.70087796 22.05044181 -9.05126953 20.57568359 C-6.03098735 13.7185248 -3.01313263 6.8603037 0 0 Z " fill="#F9FAFA" transform="translate(633,284)"/>
<path d="M0 0 C23.1 0 46.2 0 70 0 C70 5.61 70 11.22 70 17 C53.5 17 37 17 20 17 C20 26.57 20 36.14 20 46 C34.85 46 49.7 46 65 46 C65 51.94 65 57.88 65 64 C50.15 64 35.3 64 20 64 C20 77.86 20 91.72 20 106 C13.4 106 6.8 106 0 106 C0 71.02 0 36.04 0 0 Z " fill="#002042" transform="translate(730,697)"/>
<path d="M0 0 C6.17400721 4.858405 10.77151965 10.30161333 13 18 C14.03494919 26.69357316 12.88843195 32.59153629 7.76953125 39.796875 C1.60513964 47.30135175 -6.03555122 52.107765 -15.6875 53.625 C-29.42417024 54.76494761 -41.81233203 54.305721 -52.90625 45.2578125 C-59.9224713 38.82627631 -63.75755142 32.96371409 -64.1875 23.3125 C-63.9337293 14.46097808 -60.93113301 8.45811326 -54.625 2.3125 C-39.5622183 -10.13066749 -16.18560331 -10.91137084 0 0 Z " fill="#FBFCFC" transform="translate(836.6875,242.375)"/>
<path d="M0 0 C20.98835974 -2.65053 20.98835974 -2.65053 26.93994141 1.28173828 C30.22591209 5.03098781 31.92836306 9.63849741 33.77148438 14.21679688 C36.17165786 19.65439182 39.38438725 24.6603192 42.4375 29.75 C43.6264506 31.78485245 44.81280751 33.82122346 45.99609375 35.859375 C47.53012149 38.49414989 49.07000254 41.11183395 50.68774414 43.69628906 C52 46 52 46 52 48 C52.66 48 53.32 48 54 48 C54.26031006 47.30052246 54.52062012 46.60104492 54.78881836 45.88037109 C56.11081775 42.73645882 57.68300829 39.87321056 59.37890625 36.9140625 C59.86991066 36.05205734 59.86991066 36.05205734 60.37083435 35.17263794 C62.15698911 32.04380136 63.96755556 28.93012384 65.79492188 25.82519531 C66.53196412 24.56877802 67.26829881 23.31194538 68.00390625 22.0546875 C68.36376617 21.43992554 68.7236261 20.82516357 69.09439087 20.19177246 C71.04637357 16.80922359 72.75464595 13.44101456 74.21484375 9.8203125 C75.94871918 5.72193436 77.38815681 2.80301344 81 0 C88.88625079 -1.70847464 97.05054154 -0.91844081 105 0 C100.44267916 8.90662185 95.06474145 17.16651419 89.58203125 25.5234375 C85.90353296 31.13175595 82.28746265 36.77852715 78.6875 42.4375 C78.13771484 43.29964111 77.58792969 44.16178223 77.02148438 45.05004883 C75.92051868 46.78157059 74.83332401 48.52191678 73.75927734 50.27026367 C72 53 72 53 69.83837891 55.80200195 C62.53869096 65.87095722 62.8683311 75.26479575 63 87.3125 C62.99189152 89.2285343 62.98019911 91.14455694 62.96484375 93.06054688 C62.9286666 97.70931074 62.96584949 102.34912676 63 107 C56.07 107 49.14 107 42 107 C42.05542969 104.24914062 42.11085938 101.49828125 42.16796875 98.6640625 C43.13153208 72.40781903 43.13153208 72.40781903 31.53173828 49.82763672 C28.85977029 46.63950278 26.7627166 43.08404887 24.5625 39.5625 C23.65513795 38.1622479 22.74495729 36.7638184 21.83203125 35.3671875 C14.27657549 23.74381711 6.8685987 12.04411992 0 0 Z " fill="#032245" transform="translate(812,697)"/>
<path d="M0 0 C29.04 0 58.08 0 88 0 C88 5.61 88 11.22 88 17 C77.11 17 66.22 17 55 17 C55 46.37 55 75.74 55 106 C48.07 106 41.14 106 34 106 C34 76.63 34 47.26 34 17 C22.78 17 11.56 17 0 17 C0 11.39 0 5.78 0 0 Z " fill="#012042" transform="translate(568,697)"/>
<path d="M0 0 C5.08063891 3.04838335 8.44908293 6.68271233 10.7578125 12.1796875 C11.81121997 18.11707506 12.05697403 23.90486041 9.24609375 29.3984375 C6.20369879 33.67855219 2.88926227 36.22671947 -1.5546875 39.0546875 C0.63475506 50.44223513 2.97559426 61.7526241 5.86987305 72.98510742 C6.07523682 73.80857666 6.28060059 74.6320459 6.4921875 75.48046875 C6.67620117 76.19630127 6.86021484 76.91213379 7.04980469 77.6496582 C7.4453125 80.0546875 7.4453125 80.0546875 7.4453125 87.0546875 C-4.1046875 87.0546875 -15.6546875 87.0546875 -27.5546875 87.0546875 C-27.5546875 79.18170058 -27.5546875 79.18170058 -26.71264648 75.72753906 C-26.4375248 74.57164276 -26.4375248 74.57164276 -26.15684509 73.39239502 C-25.95684402 72.58485779 -25.75684296 71.77732056 -25.55078125 70.9453125 C-25.34864517 70.0966864 -25.14650909 69.2480603 -24.93824768 68.37371826 C-24.07871469 64.76597631 -23.20086768 61.16275598 -22.32446289 57.55908203 C-21.68506328 54.91850624 -21.05517581 52.27578761 -20.42578125 49.6328125 C-20.22375595 48.81717834 -20.02173065 48.00154419 -19.81358337 47.16119385 C-18.68350744 42.59794392 -18.68350744 42.59794392 -19.5546875 38.0546875 C-20.80675285 36.94579554 -22.10518458 35.88846173 -23.4296875 34.8671875 C-28.27188782 30.72788723 -29.9983412 27.06883172 -30.86328125 20.828125 C-31.18671637 15.1239056 -29.86915664 10.71121163 -26.5546875 6.0546875 C-19.51024967 -1.36645824 -9.76939739 -3.61497579 0 0 Z " fill="#FAFAFB" transform="translate(520.5546875,363.9453125)"/>
<path d="M0 0 C6.93 0 13.86 0 21 0 C21 35.31 21 70.62 21 107 C14.4 107 7.8 107 1 107 C0 106 0 106 -0.12304783 104.22151089 C-0.12166514 103.0503729 -0.12166514 103.0503729 -0.12025452 101.85557556 C-0.12162918 100.96230057 -0.12300385 100.06902557 -0.12442017 99.14868164 C-0.12082489 98.16109863 -0.11722961 97.17351562 -0.11352539 96.15600586 C-0.11367142 95.12198135 -0.11381744 94.08795685 -0.1139679 93.02259827 C-0.11326827 89.58665914 -0.10547358 86.15077347 -0.09765625 82.71484375 C-0.09579225 80.33972707 -0.09436826 77.96461 -0.09336853 75.5894928 C-0.08954197 69.32423856 -0.0797105 63.05900733 -0.06866455 56.79376221 C-0.0584534 50.4061311 -0.05387155 44.01849629 -0.04882812 37.63085938 C-0.03808836 25.08722782 -0.02049044 12.54361942 0 0 Z " fill="#09284A" transform="translate(677,697)"/>
<path d="M0 0 C3.774375 -0.061875 7.54875 -0.12375 11.4375 -0.1875 C12.60853271 -0.21481201 13.77956543 -0.24212402 14.98608398 -0.27026367 C21.7614998 -0.32358631 29.24627656 -0.28613551 34.61889648 4.41723633 C39.19274097 9.65892518 39.28725794 14.26390897 39.21484375 20.91796875 C38.83490902 26.36830518 37.59381396 30.36310999 33.6875 34.375 C28.87531611 37.28469258 24.53425432 38.25293046 18.9453125 38.1953125 C17.94516113 38.19031738 16.94500977 38.18532227 15.91455078 38.18017578 C14.66399902 38.16196777 13.41344727 38.14375977 12.125 38.125 C8.12375 38.08375 4.1225 38.0425 0 38 C0 25.46 0 12.92 0 0 Z " fill="#FAFBFB" transform="translate(495,714)"/>
<path d="M0 0 C0.66 0 1.32 0 2 0 C2 5.61 2 11.22 2 17 C-12.85 17 -27.7 17 -43 17 C-43 30.53 -43 44.06 -43 58 C-43.66 58 -44.32 58 -45 58 C-45.04934656 52.19760386 -45.08569402 46.39532919 -45.10986328 40.59277344 C-45.11993627 38.61781691 -45.13359521 36.64287534 -45.15087891 34.66796875 C-45.17507039 31.83329582 -45.18646991 28.99881962 -45.1953125 26.1640625 C-45.20563507 25.27756012 -45.21595764 24.39105774 -45.22659302 23.47769165 C-45.2269907 21.31714048 -45.12272534 19.15706282 -45 17 C-43 15 -43 15 -41.12704468 14.75949097 C-39.98787094 14.7661528 -39.98787094 14.7661528 -38.82568359 14.77294922 C-37.53457169 14.77317581 -37.53457169 14.77317581 -36.21737671 14.77340698 C-35.28712677 14.78372955 -34.35687683 14.79405212 -33.3984375 14.8046875 C-32.44683746 14.8075174 -31.49523743 14.81034729 -30.51480103 14.81326294 C-27.46807408 14.82448011 -24.42163846 14.84958737 -21.375 14.875 C-19.31250424 14.88502782 -17.25000388 14.89415401 -15.1875 14.90234375 C-10.12488733 14.92442446 -5.0624931 14.9589647 0 15 C0 10.05 0 5.1 0 0 Z " fill="#031036" transform="translate(793,744)"/>
<path d="M0 0 C0.33 0 0.66 0 1 0 C1.89044116 25.00813472 2.11698999 49.97714195 2 75 C-4.27 75 -10.54 75 -17 75 C-16.505 74.01 -16.505 74.01 -16 73 C-10.72 73 -5.44 73 0 73 C0 48.91 0 24.82 0 0 Z " fill="#273145" transform="translate(352,729)"/>
<path d="M0 0 C2 2 2 2 2.22705078 4.52197266 C2.21657715 5.5588623 2.20610352 6.59575195 2.1953125 7.6640625 C2.18886719 8.78554688 2.18242187 9.90703125 2.17578125 11.0625 C2.15902344 12.238125 2.14226562 13.41375 2.125 14.625 C2.11597656 15.80835938 2.10695313 16.99171875 2.09765625 18.2109375 C2.07402905 21.14071057 2.03815713 24.07038014 2 27 C7.61 27 13.22 27 19 27 C19.33 26.34 19.66 25.68 20 25 C20 26.32 20 27.64 20 29 C16.85418577 29.02888514 13.70840531 29.04675923 10.5625 29.0625 C9.66466797 29.07087891 8.76683594 29.07925781 7.84179688 29.08789062 C6.56079102 29.09272461 6.56079102 29.09272461 5.25390625 29.09765625 C4.46314697 29.10289307 3.6723877 29.10812988 2.85766602 29.11352539 C1 29 1 29 0 28 C-0.08767112 25.92737924 -0.10695873 23.85179706 -0.09765625 21.77734375 C-0.09443359 20.51728516 -0.09121094 19.25722656 -0.08789062 17.95898438 C-0.07953403 16.61848891 -0.07106907 15.27799412 -0.0625 13.9375 C-0.0574866 12.59310058 -0.05292342 11.2486994 -0.04882812 9.90429688 C-0.03699488 6.60282059 -0.02050971 3.30143197 0 0 Z " fill="#1E304C" transform="translate(475,775)"/>
<path d="M0 0 C7.92 0 15.84 0 24 0 C18.10714286 11.25 18.10714286 11.25 14 15 C14.309375 14.2575 14.61875 13.515 14.9375 12.75 C16.63883297 8.34654995 17.18180127 6.72720506 16 2 C10.39 2 4.78 2 -1 2 C-0.67 1.34 -0.34 0.68 0 0 Z " fill="#05172B" transform="translate(893,697)"/>
<path d="M0 0 C0.99 0 1.98 0 3 0 C3.495 4.95 3.495 4.95 4 10 C-10.52 10 -25.04 10 -40 10 C-40 9.67 -40 9.34 -40 9 C-26.47 9 -12.94 9 1 9 C0.505 4.545 0.505 4.545 0 0 Z " fill="#07294D" transform="translate(560,501)"/>
<path d="M0 0 C-0.33 0.99 -0.66 1.98 -1 3 C-3.8125 4.0625 -3.8125 4.0625 -7 5 C-10.17581426 6.27337223 -10.17581426 6.27337223 -12 9 C-11.7153924 5.58470886 -11.20339329 4.21501576 -8.8125 1.6875 C-5.57283878 -0.25629673 -3.71198163 -0.34530062 0 0 Z " fill="#071A38" transform="translate(378,244)"/>
<path d="M0 0 C0.33 0 0.66 0 1 0 C1.25422542 3.2902379 1.47409878 6.58188225 1.6875 9.875 C1.76033203 10.81214844 1.83316406 11.74929688 1.90820312 12.71484375 C1.96298828 13.61074219 2.01777344 14.50664062 2.07421875 15.4296875 C2.13182373 16.25710449 2.18942871 17.08452148 2.2487793 17.93701172 C2.16668213 18.61779785 2.08458496 19.29858398 2 20 C1.01 20.66 0.02 21.32 -1 22 C-1.14715692 14.6094524 -0.70776992 7.35575165 0 0 Z " fill="#072D52" transform="translate(729,392)"/>
<path d="M0 0 C1.65 0.33 3.3 0.66 5 1 C4.36934243 4.21852831 3.21979305 6.50801069 1.4375 9.25 C0.98246094 9.95640625 0.52742187 10.6628125 0.05859375 11.390625 C-0.29074219 11.92171875 -0.64007812 12.4528125 -1 13 C-1.33 12.34 -1.66 11.68 -2 11 C-1.2575 9.88625 -1.2575 9.88625 -0.5 8.75 C1.36039333 5.3392789 0.94237974 3.68384808 0 0 Z " fill="#071A37" transform="translate(909,699)"/>
<path d="M0 0 C0 0.66 0 1.32 0 2 C-4.8333472 2.08333357 -9.23692563 1.95261487 -14 1 C-14 0.67 -14 0.34 -14 0 C-12.2300132 -0.19532961 -10.45895721 -0.38098882 -8.6875 -0.5625 C-7.70136719 -0.66691406 -6.71523437 -0.77132812 -5.69921875 -0.87890625 C-3 -1 -3 -1 0 0 Z " fill="#162947" transform="translate(178,788)"/>
<path d="M0 0 C0 0.99 0 1.98 0 3 C-4.1196377 4.29243536 -7.66831683 5.26252625 -12 5 C-9.3139714 3.20931427 -7.3373411 2.33944209 -4.3125 1.375 C-3.50425781 1.11460937 -2.69601562 0.85421875 -1.86328125 0.5859375 C-1.24839844 0.39257812 -0.63351562 0.19921875 0 0 Z " fill="#14213C" transform="translate(447,162)"/>
<path d="M0 0 C2.475 0.495 2.475 0.495 5 1 C5 3.31 5 5.62 5 8 C2.20127563 5.47211993 0.54226981 3.79588866 0 0 Z " fill="#071A37" transform="translate(814,699)"/>
<path d="M0 0 C-0.33 0.99 -0.66 1.98 -1 3 C-2.98 3 -4.96 3 -7 3 C-7.33 4.32 -7.66 5.64 -8 7 C-8.1875 4.625 -8.1875 4.625 -8 2 C-4.77208445 -0.1519437 -3.71599191 -0.20086443 0 0 Z " fill="#0F2A4C" transform="translate(300,194)"/>
<path d="M0 0 C0.8125 1.6875 0.8125 1.6875 1 4 C-1.4375 6.75 -1.4375 6.75 -4 9 C-4.66 8.67 -5.32 8.34 -6 8 C-5.38125 7.236875 -4.7625 6.47375 -4.125 5.6875 C-1.94402948 3.00374191 -1.94402948 3.00374191 0 0 Z " fill="#0B152F" transform="translate(533,741)"/>
<path d="M0 0 C0.99 0 1.98 0 3 0 C1.33333333 3.33333333 -0.33333333 6.66666667 -2 10 C-3.39195915 5.82412255 -1.82323219 3.86525224 0 0 Z " fill="#0A1833" transform="translate(357,325)"/>
</svg>
